<?xml version="1.0" encoding="utf-8"?>
<!-- Generator: Adobe Illustrator 25.0.0, SVG Export Plug-In . SVG Version: 6.00 Build 0)  -->
<svg version="1.1" id="Layer_1" xmlns="http://www.w3.org/2000/svg" xmlns:xlink="http://www.w3.org/1999/xlink" x="0px" y="0px"
	 viewBox="0 0 500 108" style="enable-background:new 0 0 500 108;" xml:space="preserve">
<style type="text/css">
	.st0{fill:#036B52;}
	.st1{fill:#EAA600;}
</style>
<g>
	<g>
		<path class="st0" d="M29.4,54.6H12.2c-0.4-1.5-0.6-3-0.8-4.4c-0.1-1.4-0.2-2.6-0.2-3.9c0-1.2,0.1-2.5,0.2-3.8
			c0.1-1.3,0.4-2.8,0.8-4.3h54c0.4,1.5,0.6,3,0.8,4.3c0.1,1.3,0.2,2.6,0.2,3.8s-0.1,2.5-0.2,3.9c-0.1,1.4-0.4,2.8-0.8,4.4H49v43.5
			c-2,0.3-3.8,0.5-5.5,0.7c-1.6,0.1-3.1,0.2-4.4,0.2c-1.3,0-2.8-0.1-4.4-0.2c-1.6-0.2-3.4-0.4-5.3-0.7L29.4,54.6L29.4,54.6z"/>
		<path class="st0" d="M75.3,38.5c3.6-0.5,7.4-0.9,11.3-1.2s7.6-0.5,11.1-0.5c9.4,0,16.4,1.8,21.1,5.3s7,8.5,7,14.8
			c0,2.4-0.3,4.5-0.8,6.3s-1.2,3.3-2,4.6c-0.8,1.3-1.6,2.3-2.4,3.1c-0.8,0.8-1.6,1.4-2.1,1.9l13.2,25.3c-1.6,0.3-3.3,0.5-5.2,0.7
			c-1.9,0.1-3.7,0.2-5.5,0.2c-2.2,0-4.3-0.1-6.3-0.2c-2-0.2-3.7-0.4-5-0.7L96.9,70.7l1.6-0.9c2.7-1.5,4.6-3.2,5.6-4.9
			c1-1.7,1.5-3.6,1.5-5.6s-0.6-3.7-1.8-4.9c-1.2-1.3-3.1-1.9-5.7-1.9c-1.5,0-2.6,0.1-3.4,0.2v45.6c-2,0.4-3.8,0.6-5.4,0.8
			c-1.6,0.1-3.1,0.2-4.3,0.2c-1.3,0-2.8-0.1-4.3-0.2c-1.6-0.1-3.3-0.4-5.3-0.8L75.3,38.5L75.3,38.5z"/>
		<path class="st0" d="M173.1,38.3c0.6-0.1,1.8-0.3,3.5-0.5c1.7-0.1,3.6-0.2,5.6-0.2c2.6,0,4.8,0.1,6.9,0.2c2,0.2,3.4,0.3,4.3,0.5
			L171,77.2v21c-2,0.3-3.8,0.5-5.4,0.7c-1.6,0.1-3.1,0.2-4.4,0.2c-1.3,0-2.8-0.1-4.4-0.2c-1.6-0.2-3.4-0.4-5.3-0.7v-21l-22.3-38.9
			c0.9-0.1,2.3-0.3,4.5-0.5s4.5-0.2,7-0.2c2,0,4,0.1,5.9,0.2c1.9,0.2,3.2,0.3,3.8,0.5l11.4,22.9L173.1,38.3z"/>
		<path class="st1" d="M259.6,73.9c0,5.1-0.9,9.3-2.8,12.6c-1.9,3.3-4.4,6-7.7,7.9c-3.2,1.9-7.1,3.3-11.6,4.1s-9.4,1.2-14.6,1.2
			c-4.2,0-7.9-0.2-11.3-0.5c-3.3-0.3-6.9-0.7-10.8-1.2v-83c2.9-0.5,6.1-0.9,9.6-1.2c3.5-0.3,7.5-0.5,12.2-0.5
			c4.4,0,8.5,0.4,12.4,1.1c3.8,0.7,7.2,2,10,3.7s5.1,4.1,6.8,7c1.7,2.9,2.5,6.6,2.5,11c0,3.6-0.8,7-2.4,9.9c-1.6,3-3.7,5.3-6.1,6.9
			c1.8,0.7,3.5,1.6,5.2,2.7c1.7,1.1,3.1,2.5,4.4,4.2c1.3,1.7,2.3,3.7,3.1,6C259.2,68.2,259.6,70.9,259.6,73.9z M221,46.8h3.2
			c3.3,0,5.9-0.7,7.8-2s2.8-3.7,2.8-7c0-1.6-0.3-3-1-4.1s-1.5-1.9-2.5-2.5s-2.1-1-3.4-1.3c-1.2-0.2-2.4-0.4-3.6-0.4
			c-0.5,0-1,0-1.7,0c-0.7,0-1.2,0-1.7,0.1V46.8z M221,63.2v19.5c0.5,0.1,1.2,0.1,2,0.2c0.8,0,1.9,0.1,3.2,0.1c1.5,0,3-0.1,4.5-0.5
			s2.9-0.8,4.1-1.6c1.2-0.7,2.2-1.7,3-3c0.7-1.3,1.1-2.9,1.1-4.8c0-3.7-1.2-6.3-3.7-7.7s-5.6-2.1-9.5-2.1L221,63.2L221,63.2z"/>
		<path class="st1" d="M269.7,38.5c3.6-0.5,7.4-0.9,11.3-1.2s7.6-0.5,11.1-0.5c9.4,0,16.4,1.8,21.1,5.3s7,8.5,7,14.8
			c0,2.4-0.3,4.5-0.8,6.3s-1.2,3.3-2,4.6c-0.8,1.3-1.6,2.3-2.4,3.1c-0.9,0.8-1.5,1.4-2.1,1.9l13.2,25.3c-1.5,0.3-3.3,0.5-5.2,0.7
			c-1.9,0.1-3.7,0.2-5.5,0.2c-2.2,0-4.3-0.1-6.3-0.2c-2-0.2-3.7-0.4-5-0.7l-12.9-27.4l1.6-0.9c2.7-1.5,4.6-3.2,5.6-4.9
			c1-1.7,1.5-3.6,1.5-5.6s-0.6-3.7-1.8-4.9c-1.2-1.3-3.1-1.9-5.8-1.9c-1.5,0-2.6,0.1-3.4,0.2v45.6c-2,0.4-3.8,0.6-5.5,0.8
			c-1.6,0.1-3.1,0.2-4.3,0.2c-1.3,0-2.8-0.1-4.3-0.2c-1.5-0.1-3.3-0.4-5.3-0.8L269.7,38.5L269.7,38.5z"/>
		<path class="st1" d="M348,74.5c0.9,3.2,2.3,5.4,4.5,6.7c2.1,1.3,4.9,2,8.4,2c2.2,0,4.8-0.3,7.5-0.8c2.8-0.5,5.5-1.4,8.2-2.4
			c1.1,2,2,4.4,2.8,7.2s1.3,5.7,1.3,8.7c-6.9,2.5-13.9,3.8-21.1,3.8c-5.6,0-10.4-0.8-14.3-2.3c-4-1.5-7.2-3.7-9.8-6.4
			s-4.4-6-5.6-9.8c-1.2-3.8-1.8-7.9-1.8-12.4c0-4.4,0.6-8.5,1.9-12.4c1.2-3.9,3.1-7.2,5.6-10.1c2.5-2.9,5.6-5.1,9.3-6.8
			c3.7-1.7,8-2.5,13-2.5c4.1,0,7.8,0.7,11,2.1c3.2,1.4,5.9,3.3,8.2,5.8s4,5.4,5.2,8.8s1.8,7.2,1.8,11.2c0,2.1-0.1,4-0.3,5.6
			c-0.2,1.7-0.4,3-0.5,4.1L348,74.5L348,74.5z M357.2,51.6c-2.5,0-4.6,0.8-6.4,2.3c-1.8,1.5-2.8,4-3.1,7.2h18.6
			c-0.2-2.7-1-5-2.5-6.8C362.3,52.5,360.1,51.6,357.2,51.6z"/>
		<path class="st1" d="M394,54.6c-0.4-1.5-0.6-3-0.8-4.4c-0.1-1.4-0.2-2.6-0.2-3.9c0-1.2,0.1-2.5,0.2-3.8c0.1-1.3,0.4-2.8,0.8-4.3
			h31.2v36.9c0,4.4-0.6,8.2-1.9,11.3s-3.1,5.7-5.3,7.6s-5,3.4-8,4.2c-3.1,0.9-6.4,1.3-9.9,1.3c-1.2,0-2.8-0.1-4.9-0.4
			c-2.1-0.3-4.4-0.8-6.7-1.6c-0.1-0.6-0.1-1.2-0.2-1.8c0-0.6-0.1-1.2-0.1-1.8c0-2,0.2-4,0.6-6c0.4-2,0.9-4.1,1.6-6.3
			c0.3,0.1,0.8,0.2,1.4,0.3c0.6,0.1,1.3,0.2,2,0.3c0.7,0.1,1.4,0.2,2.1,0.2c0.7,0.1,1.2,0.1,1.6,0.1c0.9,0,1.8-0.1,2.7-0.2
			c1-0.1,1.9-0.5,2.7-1c0.8-0.6,1.5-1.5,2-2.6c0.5-1.2,0.8-2.8,0.8-4.9V54.7L394,54.6L394,54.6z"/>
		<path class="st1" d="M434.3,78.7c0-3.8,0.8-6.9,2.4-9.4c1.6-2.5,3.7-4.5,6.3-5.9c2.5-1.5,5.4-2.5,8.5-3.1s6.1-0.9,9-0.9h7.1
			c-0.1-1.4-0.5-2.5-1.2-3.5c-0.7-0.9-1.6-1.6-2.7-2.1c-1.1-0.5-2.3-0.9-3.6-1s-2.7-0.3-4.1-0.3c-1.9,0-4,0.2-6.5,0.6
			c-2.5,0.4-5,1.1-7.7,2c-0.7-1.3-1.3-2.5-1.8-3.6c-0.5-1.1-0.9-2.2-1.2-3.3s-0.5-2.3-0.6-3.5s-0.2-2.6-0.2-4.1
			c3.7-1.2,7.4-2.2,11.1-2.8c3.7-0.6,7-0.9,9.9-0.9c4,0,7.7,0.5,10.9,1.5s6,2.5,8.3,4.5s4,4.6,5.3,7.7c1.2,3.1,1.9,6.9,1.9,11.2v34
			c-2.9,0.9-6.5,1.7-10.7,2.5s-8.6,1.3-13.2,1.3c-4,0-7.7-0.4-11.1-1.1s-6.2-1.9-8.6-3.5s-4.3-3.8-5.6-6.4
			C435,85.8,434.3,82.5,434.3,78.7z M461.7,85.2c0.7,0,1.7-0.1,3-0.2c1.3-0.1,2.3-0.3,2.9-0.5V71.7H461c-2.7,0-5,0.6-6.9,1.7
			c-1.9,1.2-2.8,2.8-2.8,4.9c0,1.5,0.4,2.8,1,3.7c0.7,0.9,1.6,1.6,2.6,2c1,0.5,2.2,0.8,3.4,0.9C459.6,85.1,460.7,85.2,461.7,85.2z"
			/>
	</g>
</g>
</svg>
