<?xml version="1.0" encoding="utf-8"?>
<!-- Generator: Adobe Illustrator 25.0.0, SVG Export Plug-In . SVG Version: 6.00 Build 0)  -->
<svg version="1.1" id="Layer_1" xmlns="http://www.w3.org/2000/svg" xmlns:xlink="http://www.w3.org/1999/xlink" x="0px" y="0px"
	 viewBox="0 0 500 403.36" style="enable-background:new 0 0 500 403.36;" xml:space="preserve">
<style type="text/css">
	.st0{fill-rule:evenodd;clip-rule:evenodd;fill:#FFFFFF;}
	.st1{fill:#EAA600;}
	.st2{fill:#FFFFFF;}
	.st3{fill-rule:evenodd;clip-rule:evenodd;fill:#FFBF00;}
	.st4{fill:#036B52;}
</style>
<g>
	<path class="st0" d="M245.72,101.22c2.27,1.02-40.22-10.65-45.08-8.04c-4.86,2.62-28.54,55.43-28.54,55.43s-5.98,20.74,8.83,28.85
		c14.8,8.11,22.94,11.76,22.94,11.76s12.09-18.74,10.09-19.63c-2-0.89-19.07-9.29-18.15-12.56c0.92-3.28,14.18-40.67,21.96-39.94
		c7.79,0.73,15.93,4.37,15.93,4.37L245.72,101.22z"/>
	<path class="st1" d="M195.39,185.1c5.55,2.81,8.48,4.12,8.48,4.12s12.09-18.74,10.09-19.63c-0.94-0.42-5.23-2.51-9.4-4.94
		L195.39,185.1z M245.72,101.21c0.84,0.37-4.37-0.96-11.52-2.67l-8.95,19.97c4.78,1.3,8.45,2.95,8.45,2.95L245.72,101.21z
		 M258.78,78.18l47.65,21.36c0,0-2.09,31.09,10.91,36.92c13,5.83,34.9,6.7,34.9,6.7l-57.32,126.22l-101.19-46.1L258.78,78.18z"/>
	<path class="st2" d="M286.84,28.35c0,0,14.51-27.61,36.41-16.94c21.94,10.68,23.37,32.43,23.37,32.43s31.58-6.67,41.48,8.57
		c9.9,15.24,2.95,41.51,2.95,41.51s12.42,14.52,8.36,26.82c-4.03,12.38-18.25,17.54-25.54,17.26c-7.26-0.33-10.97-1.21-10.97-1.21
		s-22.88,16.09-36.95,5.39c-14.07-10.7-18.33-19.36-18.94-26.39c-0.63-6.98-0.58-16.25-0.58-16.25S250.37,77,246.93,71.41
		c-3.38-5.62-9.55-33.32,9.03-39.18c18.6-5.79,24.73-4.56,24.73-4.56L286.84,28.35z M332.49,156.14l-37.36,83.33l-10.29,22.97
		l10.97,4.97l48.69-110.1C340.5,157.43,336.52,157.05,332.49,156.14z"/>
	<path class="st3" d="M260.25,54.8c0.51,0.23,0.74,0.82,0.51,1.33c-0.23,0.51-0.83,0.74-1.33,0.51c-0.51-0.23-0.74-0.83-0.51-1.33
		C259.14,54.8,259.74,54.57,260.25,54.8 M267.99,47.4c0.59,0.27,0.86,0.96,0.59,1.56c-0.26,0.59-0.96,0.86-1.55,0.59
		c-0.59-0.27-0.86-0.96-0.59-1.56C266.7,47.4,267.4,47.13,267.99,47.4z M270.05,60.49c1.61,0.72,2.33,2.61,1.61,4.23
		c-0.72,1.61-2.61,2.33-4.23,1.61c-1.61-0.72-2.33-2.61-1.61-4.23C266.55,60.49,268.44,59.77,270.05,60.49z M275.18,42.88
		c1.02,0.46,1.48,1.65,1.02,2.67c-0.46,1.02-1.65,1.47-2.67,1.02c-1.02-0.46-1.48-1.65-1.02-2.67
		C272.97,42.87,274.16,42.42,275.18,42.88z M305.2,26.09c-0.85-0.38-1.84,0-2.22,0.85c-0.38,0.85,0,1.84,0.85,2.22
		c0.85,0.38,1.84,0,2.22-0.85C306.43,27.47,306.05,26.48,305.2,26.09z M324.12,104.83c1.36,0.61,1.96,2.2,1.35,3.56
		c-0.61,1.36-2.2,1.96-3.56,1.36c-1.36-0.61-1.97-2.2-1.36-3.56C321.17,104.83,322.76,104.22,324.12,104.83z M339.46,96.95
		c0.85,0.38,1.23,1.38,0.85,2.22c-0.38,0.85-1.38,1.23-2.22,0.85c-0.85-0.38-1.23-1.38-0.85-2.22
		C337.61,96.95,338.61,96.57,339.46,96.95z M334.39,110.72c1.44,0.65,2.09,2.34,1.44,3.78c-0.65,1.44-2.34,2.09-3.78,1.44
		c-1.44-0.65-2.09-2.34-1.44-3.78C331.25,110.72,332.94,110.08,334.39,110.72z M327.94,93.45c0.51,0.23,0.74,0.83,0.51,1.34
		c-0.23,0.51-0.83,0.73-1.33,0.51c-0.51-0.23-0.74-0.83-0.51-1.33C326.83,93.45,327.43,93.22,327.94,93.45z M282.77,69.57
		c2.01,0.9,2.91,3.26,2.01,5.27c-0.9,2.01-3.26,2.91-5.27,2.01c-2.01-0.9-2.91-3.26-2.01-5.27
		C278.4,69.56,280.76,68.66,282.77,69.57z"/>
	<path class="st4" d="M114.83,99.01c2.14,0,3.88,1.74,3.88,3.88c0,2.14-1.74,3.88-3.88,3.88H100.7c-2.14,0-3.88-1.74-3.88-3.88
		c0-2.14,1.74-3.88,3.88-3.88H114.83z M186.44,31.82c2.14,0,3.88,1.73,3.88,3.87c0,2.14-1.74,3.88-3.88,3.88h-24.7
		c-2.14,0-3.87-1.74-3.87-3.88c0-2.14,1.73-3.87,3.87-3.87H186.44z M229.04,126.09L229.04,126.09l-11.13-4.99
		c-0.19-0.08-0.35-0.1-0.51,0l-0.05-0.02c-0.14,0.05-0.27,0.22-0.33,0.36l-15.67,34.96c-0.13,0.28-0.14,0.56-0.04,0.83
		c0.1,0.27,0.29,0.47,0.57,0.6l10.76,4.82L229.04,126.09z M238.35,105.33L238.35,105.33l-16.7-7.48c-4.58-2.06-9.58-2.05-13.99-0.36
		c-4.39,1.64-8.15,5.02-10.2,9.61l-20,44.62c-2.08,4.64-2.08,9.65-0.4,14.06c1.69,4.36,4.99,8.15,9.58,10.2l16.69,7.48l4.87-10.87
		l-10.75-4.82c-2.99-1.34-5.16-3.78-6.24-6.62l0.02-0.05l-0.02,0.05c-1.11-2.92-1.11-6.18,0.24-9.18l15.67-34.96
		c1.28-2.86,3.63-4.96,6.41-6.02l0.07-0.02c2.76-1.02,5.92-1.06,8.77,0.22l11.13,4.99L238.35,105.33z M253.73,141.43L253.73,141.43
		c1.22-2.72,4.47-3.96,7.18-2.75c2.76,1.24,3.95,4.47,2.73,7.19l-18,40.16c-1.22,2.72-4.4,3.94-7.16,2.7
		c-2.71-1.22-3.97-4.42-2.75-7.14L253.73,141.43z M280.05,153.23L280.05,153.23c1.22-2.72,4.42-3.98,7.14-2.77
		c2.76,1.24,3.95,4.47,2.73,7.19l-18.01,40.16c-1.22,2.72-4.4,3.94-7.16,2.7c-2.71-1.21-3.92-4.4-2.7-7.12L280.05,153.23z
		 M306.33,165.02L306.33,165.02c1.22-2.72,4.42-3.98,7.18-2.75c2.71,1.22,3.95,4.47,2.73,7.19l-18,40.16
		c-1.22,2.72-4.45,3.92-7.16,2.7c-2.76-1.24-3.97-4.42-2.75-7.14L306.33,165.02z M352.03,136.48L352.03,136.48
		c0.27-0.1,0.49-0.23,0.74-0.28c2.62-1.08,5.08-2.56,7.32-4.43c0.11-0.12,0.17-0.26,0.26-0.33c1.78-2.47,5.2-2.96,7.59-1.16
		c0.47,0.32,0.99,0.67,1.44,0.93c0.4,0.24,0.94,0.53,1.5,0.79c4.02,1.8,8.41,1.8,12.2,0.35c3.82-1.5,7.07-4.37,8.88-8.4
		c1.8-4.03,1.81-8.42,0.37-12.22c-1.29-3.39-3.75-6.41-7.13-8.27c-0.65-0.18-1.31-0.47-1.85-0.88c-1.24-0.5-2.49-0.84-3.71-0.99
		c-1.48-0.21-3.01-0.17-4.52,0.06c-2.99,0.4-5.73-1.61-6.15-4.56c-0.47-2.97,1.57-5.77,4.51-6.19c2.53-0.38,5.1-0.36,7.64-0.01
		c1.22,0.15,2.47,0.38,3.7,0.76l0.26-0.45l0.11-0.12c0.77-1.23,1.48-2.55,2.07-3.86c3.28-7.31,3.27-15.19,0.65-22.11
		c-2.58-6.9-7.85-12.81-15.1-16.06c-3.84-1.72-7.91-2.53-11.97-2.5c-4.06,0.04-8.16,0.9-11.91,2.65c-0.92,0.43-1.93,0.54-2.9,0.45
		c-0.11,0-0.27-0.01-0.46,0.02c-2.99-0.1-5.29-2.6-5.24-5.61c0.2-5.82-1.37-11.48-4.36-16.2c-2.93-4.75-7.26-8.6-12.64-11.02
		c-7.25-3.25-15.17-3.25-22.01-0.63c-5.9,2.25-11.09,6.45-14.48,12.14c0.73,0.5,1.46,0.99,2.2,1.49c1.85,1.39,3.54,3,5.06,4.75
		c1.95,2.28,1.73,5.67-0.56,7.63c-2.23,1.98-5.67,1.74-7.62-0.54c-0.99-1.18-2.11-2.18-3.37-3.14c-1.13-0.85-2.48-1.62-3.97-2.29
		c-5.28-2.37-11.02-2.35-16.04-0.43c-5.06,1.89-9.38,5.76-11.75,11.05c-2.37,5.29-2.39,11.09-0.43,16.13
		c1.9,5.02,5.71,9.31,10.99,11.68l42.13,18.89c0.19-0.54,0.42-1.05,0.65-1.57c0.72-1.59,1.61-3.22,2.6-4.8
		c0.92-1.56,1.98-3.05,3.19-4.48c1.88-2.31,5.33-2.62,7.61-0.7c2.3,1.88,2.63,5.29,0.7,7.58c-0.85,1.02-1.63,2.14-2.32,3.3
		c-0.69,1.04-1.28,2.24-1.87,3.55c-0.84,1.87-1.47,3.79-1.89,5.74l-0.02,0.05c-1.3,5.78-0.83,11.73,1.21,17.09
		c2.75,7.14,8.17,13.23,15.69,16.6c5.43,2.43,11.28,3.14,16.85,2.26C348,137.83,350.05,137.28,352.03,136.48z M219.12,241.13h-44.39
		c-2.14,0-3.88-1.74-3.88-3.88c0-2.14,1.74-3.87,3.88-3.87h27.09l-12.43-5.57c-2.76-1.24-3.97-4.42-2.73-7.19l0.84-1.88h-49.12
		c-2.14,0-3.88-1.74-3.88-3.88c0-2.14,1.74-3.87,3.88-3.87h52.6l7.91-17.64l-16.7-7.48c-7.34-3.29-12.64-9.27-15.29-16.25
		c-2.14-5.65-2.56-11.95-0.9-18.05h-59.26c-2.14,0-3.88-1.73-3.88-3.88c0-2.14,1.74-3.88,3.88-3.88h62.35l6.56-14.64h-33.91
		c-2.14,0-3.88-1.74-3.88-3.88c0-2.14,1.74-3.88,3.88-3.88h37.39l6.57-14.64h-51.36c-2.14,0-3.88-1.74-3.88-3.88
		c0-2.14,1.74-3.88,3.88-3.88h55.15c3.45-5.48,8.54-9.49,14.31-11.7c6.98-2.67,14.96-2.69,22.31,0.6l16.69,7.48l6.85-15.28
		c-4.3-3.56-7.52-8.16-9.45-13.24c-0.61-1.6-1.08-3.23-1.43-4.9h-67.41c-2.14,0-3.88-1.74-3.88-3.88c0-2.14,1.73-3.88,3.88-3.88
		h66.78c0.17-3.95,1.07-7.94,2.8-11.78c0.44-0.99,0.93-1.94,1.45-2.86h-42.08c-2.14,0-3.88-1.74-3.88-3.88
		c0-2.14,1.74-3.87,3.88-3.87h48.3c2.96-2.69,6.39-4.78,10.08-6.19c5.63-2.15,11.89-2.72,17.98-1.4
		c4.69-8.59,12.17-14.86,20.77-18.15c9.49-3.63,20.34-3.66,30.35,0.83c7.34,3.29,13.3,8.66,17.4,15.17
		c2.8,4.52,4.73,9.61,5.53,14.97c3.31-0.88,6.73-1.37,10.11-1.38c5.62-0.01,11.18,1.13,16.41,3.47
		c10.01,4.49,17.22,12.56,20.83,22.06c3.6,9.5,3.6,20.41-0.9,30.44c-0.78,1.73-1.7,3.4-2.69,4.99c3.64,3.04,6.34,6.9,8.01,11.19
		c2.4,6.42,2.43,13.75-0.62,20.55c-3.03,6.75-8.54,11.65-14.91,14.09c-6.44,2.46-13.73,2.45-20.51-0.59
		c-0.33-0.15-0.7-0.31-1.08-0.48c-2.16,1.57-4.47,2.95-6.83,4.09l-46.48,103.67l-10.34,23.06c-1.24,2.76-4.47,3.96-7.18,2.74
		l-61.26-27.46L219.12,241.13z M299.94,249.67l-61.26-27.46c-2.71-1.22-3.9-4.45-2.68-7.17c1.24-2.77,4.42-3.98,7.14-2.77
		l61.26,27.46l40.59-90.55c-6.86,0.64-13.9-0.44-20.4-3.35c-10.24-4.59-17.67-12.93-21.34-22.68c-2.29-5.92-3.15-12.39-2.43-18.87
		l-41.71-18.7l-8.62,19.21l-39.46,88.01l-12.25,27.32l38.95,17.46l56.3,25.24L299.94,249.67z"/>
</g>
<g>
	<g>
		<path class="st4" d="M29.39,330.83H12.22c-0.39-1.55-0.64-3-0.75-4.35c-0.12-1.35-0.17-2.65-0.17-3.89c0-1.24,0.06-2.51,0.17-3.83
			c0.12-1.31,0.37-2.75,0.75-4.29h53.96c0.39,1.55,0.64,2.98,0.75,4.29c0.12,1.32,0.17,2.59,0.17,3.83c0,1.24-0.06,2.54-0.17,3.89
			c-0.12,1.35-0.37,2.81-0.75,4.35H49.01v43.52c-2.01,0.31-3.83,0.54-5.45,0.7c-1.62,0.15-3.1,0.23-4.41,0.23
			c-1.32,0-2.79-0.08-4.41-0.23c-1.62-0.16-3.41-0.39-5.34-0.7V330.83z"/>
		<path class="st4" d="M75.35,314.7c3.64-0.46,7.41-0.85,11.32-1.16c3.91-0.31,7.6-0.46,11.08-0.46c9.36,0,16.38,1.76,21.06,5.28
			c4.68,3.52,7.02,8.45,7.02,14.8c0,2.4-0.27,4.49-0.81,6.27c-0.54,1.78-1.2,3.31-1.97,4.58c-0.77,1.28-1.59,2.3-2.44,3.08
			c-0.85,0.77-1.55,1.39-2.09,1.86l13.23,25.3c-1.55,0.31-3.27,0.54-5.16,0.7c-1.9,0.15-3.73,0.23-5.51,0.23
			c-2.17,0-4.26-0.08-6.27-0.23c-2.01-0.16-3.68-0.39-4.99-0.7l-12.88-27.39l1.62-0.93c2.71-1.55,4.56-3.19,5.57-4.93
			c1-1.74,1.51-3.62,1.51-5.63c0-2.01-0.6-3.66-1.8-4.93c-1.2-1.28-3.12-1.92-5.74-1.92c-1.47,0-2.59,0.08-3.37,0.23v45.61
			c-2.01,0.39-3.83,0.64-5.45,0.75c-1.62,0.12-3.06,0.17-4.29,0.17c-1.32,0-2.75-0.06-4.29-0.17c-1.55-0.12-3.33-0.37-5.34-0.75
			V314.7z"/>
		<path class="st4" d="M173.07,314.46c0.62-0.15,1.8-0.31,3.54-0.46c1.74-0.15,3.62-0.23,5.63-0.23c2.55,0,4.83,0.08,6.85,0.23
			c2.01,0.16,3.44,0.31,4.29,0.46l-22.4,38.88v21.01c-2.01,0.31-3.83,0.54-5.45,0.7c-1.62,0.15-3.1,0.23-4.41,0.23
			c-1.32,0-2.79-0.08-4.41-0.23c-1.62-0.16-3.41-0.39-5.34-0.7v-21.01l-22.28-38.88c0.85-0.15,2.34-0.31,4.47-0.46
			c2.13-0.15,4.47-0.23,7.02-0.23c2.01,0,3.98,0.08,5.92,0.23c1.93,0.16,3.21,0.31,3.83,0.46l11.37,22.86L173.07,314.46z"/>
		<path class="st1" d="M259.64,350.09c0,5.11-0.93,9.32-2.79,12.65c-1.86,3.33-4.41,5.96-7.66,7.89c-3.25,1.94-7.12,3.29-11.61,4.06
			c-4.49,0.77-9.36,1.16-14.62,1.16c-4.18,0-7.93-0.16-11.26-0.46c-3.33-0.31-6.93-0.7-10.79-1.16v-82.98
			c2.94-0.46,6.15-0.85,9.63-1.16c3.48-0.31,7.54-0.46,12.19-0.46c4.41,0,8.53,0.37,12.36,1.1c3.83,0.74,7.18,1.97,10.04,3.71
			c2.86,1.74,5.12,4.06,6.79,6.96c1.66,2.9,2.5,6.56,2.5,10.97c0,3.64-0.81,6.95-2.44,9.92c-1.62,2.98-3.67,5.28-6.15,6.91
			c1.78,0.7,3.5,1.61,5.16,2.73c1.66,1.12,3.13,2.51,4.41,4.18c1.28,1.66,2.3,3.66,3.08,5.98
			C259.25,344.41,259.64,347.08,259.64,350.09z M221,322.94h3.25c3.33,0,5.92-0.68,7.78-2.03c1.86-1.35,2.79-3.69,2.79-7.02
			c0-1.62-0.33-2.98-0.99-4.06c-0.66-1.08-1.49-1.93-2.5-2.55c-1.01-0.62-2.13-1.04-3.37-1.28c-1.24-0.23-2.44-0.35-3.6-0.35
			c-0.46,0-1.03,0-1.68,0c-0.66,0-1.22,0.04-1.68,0.12V322.94z M221,339.42v19.5c0.54,0.08,1.22,0.14,2.03,0.17
			c0.81,0.04,1.88,0.06,3.19,0.06c1.47,0,2.96-0.15,4.47-0.46c1.51-0.31,2.88-0.83,4.12-1.57c1.24-0.73,2.22-1.74,2.96-3.02
			c0.73-1.28,1.1-2.88,1.1-4.82c0-3.71-1.22-6.29-3.66-7.72c-2.44-1.43-5.59-2.15-9.46-2.15H221z"/>
		<path class="st1" d="M269.74,314.7c3.64-0.46,7.41-0.85,11.32-1.16c3.91-0.31,7.6-0.46,11.08-0.46c9.36,0,16.38,1.76,21.06,5.28
			c4.68,3.52,7.02,8.45,7.02,14.8c0,2.4-0.27,4.49-0.81,6.27c-0.54,1.78-1.2,3.31-1.97,4.58c-0.77,1.28-1.59,2.3-2.44,3.08
			c-0.85,0.77-1.55,1.39-2.09,1.86l13.23,25.3c-1.55,0.31-3.27,0.54-5.17,0.7c-1.9,0.15-3.73,0.23-5.51,0.23
			c-2.17,0-4.26-0.08-6.27-0.23c-2.01-0.16-3.68-0.39-4.99-0.7l-12.88-27.39l1.62-0.93c2.71-1.55,4.56-3.19,5.57-4.93
			c1-1.74,1.51-3.62,1.51-5.63c0-2.01-0.6-3.66-1.8-4.93c-1.2-1.28-3.12-1.92-5.75-1.92c-1.47,0-2.59,0.08-3.37,0.23v45.61
			c-2.01,0.39-3.83,0.64-5.45,0.75c-1.62,0.12-3.06,0.17-4.29,0.17c-1.32,0-2.75-0.06-4.29-0.17c-1.55-0.12-3.33-0.37-5.34-0.75
			V314.7z"/>
		<path class="st1" d="M347.96,350.67c0.85,3.17,2.34,5.42,4.47,6.73c2.13,1.32,4.93,1.97,8.41,1.97c2.24,0,4.76-0.27,7.54-0.81
			c2.79-0.54,5.53-1.35,8.24-2.44c1.08,2.01,2.03,4.41,2.84,7.2c0.81,2.79,1.26,5.69,1.33,8.7c-6.89,2.55-13.93,3.83-21.12,3.83
			c-5.57,0-10.35-0.77-14.33-2.32c-3.99-1.55-7.24-3.69-9.75-6.44c-2.51-2.75-4.37-6.01-5.57-9.81c-1.2-3.79-1.8-7.93-1.8-12.42
			c0-4.41,0.62-8.55,1.86-12.42c1.24-3.87,3.09-7.23,5.57-10.1c2.47-2.86,5.57-5.12,9.28-6.79c3.71-1.66,8.05-2.5,13-2.5
			c4.1,0,7.76,0.7,10.97,2.09c3.21,1.39,5.94,3.31,8.18,5.75c2.24,2.44,3.96,5.38,5.16,8.82c1.2,3.44,1.8,7.18,1.8,11.2
			c0,2.09-0.1,3.97-0.29,5.63c-0.19,1.67-0.37,3.04-0.52,4.12H347.96z M357.24,327.81c-2.48,0-4.6,0.77-6.38,2.32
			c-1.78,1.55-2.83,3.95-3.13,7.2h18.57c-0.16-2.71-0.99-4.97-2.5-6.79C362.29,328.72,360.1,327.81,357.24,327.81z"/>
		<path class="st1" d="M394.03,330.83c-0.39-1.55-0.64-3-0.75-4.35c-0.12-1.35-0.17-2.65-0.17-3.89c0-1.24,0.06-2.51,0.17-3.83
			c0.12-1.31,0.37-2.75,0.75-4.29h31.22v36.91c0,4.41-0.64,8.18-1.92,11.32s-3.06,5.67-5.34,7.6c-2.28,1.93-4.95,3.35-8.01,4.24
			c-3.06,0.89-6.37,1.33-9.92,1.33c-1.16,0-2.81-0.14-4.93-0.41c-2.13-0.27-4.35-0.79-6.67-1.57c-0.08-0.62-0.14-1.22-0.17-1.8
			c-0.04-0.58-0.06-1.18-0.06-1.8c0-2.01,0.19-4.02,0.58-6.04c0.39-2.01,0.93-4.1,1.62-6.27c0.31,0.08,0.77,0.17,1.39,0.29
			c0.62,0.12,1.29,0.21,2.03,0.29c0.73,0.08,1.43,0.16,2.09,0.23c0.66,0.08,1.18,0.12,1.57,0.12c0.85,0,1.76-0.06,2.73-0.17
			c0.97-0.12,1.86-0.46,2.67-1.04c0.81-0.58,1.47-1.45,1.97-2.61c0.5-1.16,0.75-2.79,0.75-4.87v-19.38H394.03z"/>
		<path class="st1" d="M434.3,354.85c0-3.79,0.81-6.92,2.44-9.4c1.62-2.47,3.71-4.45,6.27-5.92c2.55-1.47,5.38-2.5,8.47-3.08
			c3.09-0.58,6.11-0.87,9.05-0.87h7.08c-0.08-1.39-0.46-2.55-1.16-3.48c-0.7-0.93-1.59-1.64-2.67-2.15c-1.08-0.5-2.28-0.85-3.6-1.04
			c-1.32-0.19-2.67-0.29-4.06-0.29c-1.86,0-4.02,0.21-6.5,0.64c-2.48,0.43-5.03,1.1-7.66,2.03c-0.7-1.31-1.3-2.51-1.8-3.6
			c-0.5-1.08-0.89-2.19-1.16-3.31c-0.27-1.12-0.46-2.28-0.58-3.48c-0.12-1.2-0.17-2.57-0.17-4.12c3.71-1.24,7.41-2.17,11.08-2.79
			c3.67-0.62,6.98-0.93,9.92-0.93c4.02,0,7.66,0.48,10.91,1.45c3.25,0.97,6.02,2.46,8.3,4.47c2.28,2.01,4.04,4.58,5.28,7.72
			c1.24,3.13,1.86,6.87,1.86,11.2v34c-2.94,0.85-6.5,1.7-10.68,2.55s-8.59,1.28-13.23,1.28c-4.02,0-7.72-0.37-11.08-1.1
			s-6.25-1.92-8.65-3.54c-2.4-1.62-4.28-3.77-5.63-6.44C434.98,361.99,434.3,358.72,434.3,354.85z M461.69,361.35
			c0.7,0,1.7-0.08,3.02-0.23c1.31-0.15,2.28-0.31,2.9-0.46v-12.77h-6.62c-2.71,0-4.99,0.58-6.85,1.74
			c-1.86,1.16-2.79,2.79-2.79,4.88c0,1.55,0.35,2.77,1.04,3.66c0.7,0.89,1.57,1.57,2.61,2.03c1.04,0.46,2.17,0.77,3.37,0.93
			C459.58,361.27,460.68,361.35,461.69,361.35z"/>
	</g>
</g>
</svg>
